<svg width="292" height="87" viewBox="0 0 292 87" fill="none" xmlns="http://www.w3.org/2000/svg">
<g clip-path="url(#clip0_9_840)">
<path d="M0 11.6C0 5.1935 5.16731 0 11.5415 0H280.459C286.833 0 292 5.1935 292 11.6V75.4C292 81.8065 286.833 87 280.459 87H11.5415C5.16731 87 0 81.8065 0 75.4V11.6Z" fill="black"/>
<path fill-rule="evenodd" clip-rule="evenodd" d="M0 75.4V11.6C0 5.1935 5.1673 0 11.5415 0H280.458C286.833 0 292 5.1935 292 11.6V75.4C292 81.8065 286.833 87 280.458 87H11.5415C5.16731 87 0 81.8065 0 75.4ZM1.73123 75.4V11.6C1.73123 6.15447 6.12343 1.74 11.5415 1.74H280.458C285.877 1.74 290.269 6.15447 290.269 11.6V75.4C290.269 80.8455 285.877 85.26 280.458 85.26H11.5415C6.12344 85.26 1.73123 80.8455 1.73123 75.4Z" fill="white" fill-opacity="0.3"/>
<path d="M61.5694 52.8279C68.4832 48.9771 73.725 46.0432 74.1768 45.8153C75.6216 45.0354 77.1144 42.9722 74.1768 41.3698C73.2283 40.8659 68.1215 38.0228 61.5694 34.3572L52.4869 43.6608L61.5689 52.8279H61.5694Z" fill="#FFD900"/>
<path d="M52.4869 43.6606L23.566 73.2251C24.2443 73.3165 25.0108 73.1338 25.9148 72.6299C27.8118 71.577 47.9214 60.4376 61.5698 52.8298L52.4869 43.6606Z" fill="#F43249"/>
<path d="M52.4868 43.6608L61.5688 34.4023C61.5688 34.4023 27.9489 15.7926 25.9143 14.6945C25.1488 14.2328 24.2898 14.0963 23.5214 14.2328L52.4868 43.6603V43.6608Z" fill="#00EE76"/>
<path d="M52.4869 43.6609L23.521 14.2334C22.3454 14.5089 21.3518 15.5623 21.3518 17.7159V69.7414C21.3518 71.7138 22.1207 73.134 23.5655 73.2705L52.4864 43.6604L52.4869 43.6609Z" fill="#00D3FF"/>
<path d="M147.953 47.2639C142.757 47.2639 138.463 51.3426 138.463 56.9349C138.463 62.4815 142.712 66.6059 147.954 66.6059C153.195 66.6059 157.443 62.5272 157.443 56.9349C157.443 51.3426 153.195 47.2639 147.953 47.2639ZM147.953 62.7576C145.106 62.7576 142.622 60.3275 142.622 56.8918C142.622 53.4083 145.108 51.0259 147.953 51.0259C150.799 51.0259 153.285 53.4083 153.285 56.8918C153.285 60.3275 150.799 62.7576 147.953 62.7576ZM127.302 47.2639C122.06 47.2639 117.812 51.3426 117.812 56.9349C117.812 62.4815 122.06 66.6059 127.302 66.6059C132.543 66.6059 136.792 62.5272 136.792 56.9349C136.792 51.3426 132.543 47.2639 127.301 47.2639H127.302ZM127.302 62.7576C124.454 62.7576 121.97 60.3275 121.97 56.8918C121.97 53.4083 124.456 51.0259 127.302 51.0259C130.149 51.0259 132.633 53.4083 132.633 56.8918C132.633 60.3275 130.192 62.7576 127.302 62.7576ZM102.764 50.2435V54.3222H112.343C112.071 56.6137 111.305 58.3095 110.174 59.4563C108.774 60.8766 106.605 62.4359 102.764 62.4359C96.8432 62.4359 92.2806 57.5778 92.2806 51.573C92.2806 45.5681 96.8456 40.6182 102.764 40.6182C105.971 40.6182 108.277 41.902 109.994 43.5526L112.84 40.6639C110.444 38.3272 107.237 36.54 102.764 36.54C94.674 36.54 87.8953 43.2766 87.8953 51.4816C87.8953 59.6872 94.674 66.4237 102.764 66.4237C107.147 66.4237 110.402 64.9578 113.022 62.206C115.688 59.502 116.501 55.6968 116.501 52.6264C116.501 51.6643 116.412 50.7931 116.275 50.0593L102.764 50.2435ZM203.174 53.4058C202.406 51.2513 199.967 47.2639 195.085 47.2639C190.203 47.2639 186.182 51.1604 186.182 56.9349C186.182 62.3425 190.203 66.6059 195.537 66.6059C199.875 66.6059 202.361 63.9018 203.399 62.3425L200.192 60.1428C199.106 61.7478 197.661 62.8007 195.537 62.8007C193.413 62.8007 191.922 61.8387 190.972 59.8668L203.579 54.5049L203.174 53.4058ZM190.34 56.6614C190.25 52.9476 193.188 51.0234 195.265 51.0234C196.937 51.0234 198.293 51.8485 198.789 53.0866L190.34 56.6614ZM180.082 65.965H184.24V37.6386H180.082V65.965ZM173.305 49.4185H173.17C172.222 48.2717 170.46 47.2639 168.198 47.2639C163.453 47.2639 159.16 51.5273 159.16 56.9349C159.16 62.3425 163.498 66.5607 168.198 66.5607C170.457 66.5607 172.22 65.5525 173.17 64.36H173.305V65.7351C173.305 69.449 171.361 71.4183 168.243 71.4183C165.712 71.4183 164.13 69.5398 163.498 67.9805L159.884 69.5398C160.922 72.1069 163.68 75.2691 168.243 75.2691C173.123 75.2691 177.236 72.3352 177.236 65.2313V47.8591H173.305V49.4185ZM168.56 62.7576C165.712 62.7576 163.319 60.3275 163.319 56.9374C163.319 53.5473 165.714 51.0711 168.56 51.0711C171.363 51.0711 173.622 53.5473 173.622 56.9374C173.62 60.2819 171.361 62.7576 168.56 62.7576ZM222.561 37.6391H212.619V65.965H216.777V55.2386H222.561C227.171 55.2386 231.689 51.846 231.689 46.4389C231.689 41.0312 227.171 37.6386 222.561 37.6386V37.6391ZM222.695 51.2994H216.82V41.5803H222.695C225.768 41.5803 227.575 44.193 227.575 46.4384C227.532 48.6385 225.77 51.2994 222.695 51.2994ZM248.274 47.2183C245.292 47.2183 242.173 48.5477 240.908 51.573L244.57 53.1323C245.384 51.573 246.829 51.0691 248.366 51.0691C250.535 51.0691 252.704 52.398 252.749 54.7347V55.0108C251.98 54.5525 250.4 53.9097 248.411 53.9097C244.435 53.9097 240.411 56.1555 240.411 60.2819C240.411 64.0865 243.666 66.5151 247.281 66.5151C250.083 66.5151 251.619 65.2313 252.567 63.7197H252.702V65.9198H256.723V55.0559C256.678 50.0608 253.019 47.2178 248.274 47.2178V47.2183ZM247.777 62.7119C246.422 62.7119 244.523 62.0233 244.523 60.3295C244.523 58.1294 246.871 57.3043 248.906 57.3043C250.713 57.3043 251.572 57.7168 252.702 58.2664C252.386 60.8791 250.171 62.7119 247.777 62.7119ZM271.23 47.8617L266.485 60.0992H266.35L261.425 47.8612H256.952L264.363 65.0029L260.159 74.5831H264.497L275.839 47.8612H271.229L271.23 47.8617ZM233.994 65.965H238.153V37.6386H233.994V65.965Z" fill="white"/>
<path d="M96.0669 28.7169C94.8112 28.7169 93.6539 28.4137 92.5952 27.8074C91.5364 27.2011 90.6931 26.3721 90.0653 25.3204C89.4497 24.2563 89.142 23.0746 89.142 21.7754C89.142 20.4762 89.4497 19.3008 90.0653 18.249C90.6931 17.1849 91.5364 16.3497 92.5952 15.7434C93.6539 15.1371 94.8112 14.834 96.0669 14.834C97.0641 14.834 97.9935 15.0134 98.8553 15.3722C99.7171 15.7311 100.437 16.2322 101.016 16.8756L99.5755 18.3233C99.1446 17.8407 98.6275 17.4695 98.0243 17.2097C97.4334 16.9498 96.7747 16.8199 96.0484 16.8199C95.1989 16.8199 94.4049 17.0241 93.6662 17.4324C92.9276 17.8407 92.3367 18.4223 91.8935 19.177C91.4503 19.9318 91.2287 20.7979 91.2287 21.7754C91.2287 22.7529 91.4503 23.6191 91.8935 24.3738C92.3367 25.1286 92.9276 25.7101 93.6662 26.1185C94.4049 26.5268 95.2051 26.7309 96.0669 26.7309C96.8548 26.7309 97.5134 26.6134 98.0428 26.3783C98.5721 26.1432 99.0461 25.8277 99.4647 25.4317C99.7355 25.1595 99.9633 24.8193 100.148 24.4109C100.345 24.0026 100.474 23.5572 100.536 23.0746H96.0484V21.2186H102.493C102.555 21.5651 102.586 21.9239 102.586 22.2951C102.586 23.1365 102.456 23.9469 102.198 24.7265C101.939 25.4936 101.527 26.1618 100.96 26.7309C99.7171 28.0549 98.0859 28.7169 96.0669 28.7169Z" fill="white"/>
<path d="M104.511 15.1309H112.544V17.1169H106.58V20.7917H111.953V22.7591H106.58V26.434H112.544V28.4199H104.511V15.1309Z" fill="white"/>
<path d="M117.331 17.1169H113.638V15.1309H123.093V17.1169H119.399V28.4199H117.331V17.1169Z" fill="white"/>
<path d="M128.5 15.1309H130.568V28.4199H128.5V15.1309Z" fill="white"/>
<path d="M135.801 17.1169H132.108V15.1309H141.563V17.1169H137.869V28.4199H135.801V17.1169Z" fill="white"/>
<path d="M152.795 28.7169C151.515 28.7169 150.352 28.4137 149.305 27.8074C148.259 27.1888 147.434 26.3474 146.831 25.2833C146.24 24.2192 145.944 23.0499 145.944 21.7754C145.944 20.501 146.24 19.3379 146.831 18.2861C147.434 17.222 148.259 16.3807 149.305 15.762C150.352 15.1433 151.515 14.834 152.795 14.834C154.076 14.834 155.233 15.1433 156.267 15.762C157.313 16.3807 158.138 17.222 158.741 18.2861C159.345 19.3379 159.646 20.501 159.646 21.7754C159.646 23.0499 159.345 24.2192 158.741 25.2833C158.15 26.3474 157.332 27.1888 156.285 27.8074C155.239 28.4137 154.076 28.7169 152.795 28.7169ZM152.795 26.7309C153.669 26.7309 154.47 26.5206 155.196 26.0999C155.922 25.6792 156.495 25.0977 156.913 24.3553C157.332 23.6005 157.541 22.7405 157.541 21.7754C157.541 20.8103 157.332 19.9565 156.913 19.2141C156.495 18.4594 155.922 17.8716 155.196 17.4509C154.47 17.0303 153.669 16.8199 152.795 16.8199C151.921 16.8199 151.121 17.0303 150.395 17.4509C149.668 17.8716 149.09 18.4594 148.659 19.2141C148.24 19.9565 148.031 20.8103 148.031 21.7754C148.031 22.7405 148.24 23.6005 148.659 24.3553C149.09 25.0977 149.668 25.6792 150.395 26.0999C151.121 26.5206 151.921 26.7309 152.795 26.7309Z" fill="white"/>
<path d="M161.548 15.1309H164.004L169.913 24.8007H170.024L169.913 22.2394V15.1309H171.963V28.4199H169.802L163.598 18.249H163.487L163.598 20.8103V28.4199H161.548V15.1309Z" fill="white"/>
</g>
<defs>
<clipPath id="clip0_9_840">
<rect width="292" height="87" fill="white"/>
</clipPath>
</defs>
</svg>
