<svg width="155" height="155" viewBox="0 0 155 155" fill="none" xmlns="http://www.w3.org/2000/svg">
<circle cx="77.5" cy="77.5" r="77.5" fill="#E9E9E9"/>
<g clip-path="url(#clip0_6_706)">
<path d="M116.442 82.7497C113.992 79.599 109.572 79.0026 106.387 81.2116L98.0045 86.8196C96.7886 84.6483 94.466 83.1765 91.805 83.1765H84.2339C81.1611 80.3104 77.0681 78.6837 72.8469 78.6837C65.5693 78.6837 60.9651 82.1042 58.2362 85.3455C57.7242 84.3019 56.5061 83.7756 55.3771 84.1616L39.5861 89.5591C38.3621 89.9773 37.7078 91.3103 38.1265 92.5349L46.2898 116.412C46.7087 117.637 48.0411 118.29 49.2654 117.871L65.0562 112.474C66.2802 112.056 66.9346 110.723 66.5159 109.498L66.3843 109.113L85.3518 108.527C90.6924 108.519 95.8139 106.879 100.165 103.783L114.889 93.3091C118.32 90.8682 119.026 86.0744 116.442 82.7497ZM49.967 112.678L43.32 93.2364L54.6754 89.3552L61.3223 108.797L49.967 112.678ZM112.172 89.4899L97.4471 99.9635C93.8842 102.499 89.6887 103.84 85.3145 103.84C85.2903 103.84 85.2662 103.84 85.2422 103.841C63.9202 104.5 65.4206 104.388 64.8497 104.625L60.1233 90.8007C61.8673 87.6996 65.5998 83.3712 72.8467 83.3712C76.0231 83.3712 79.0476 84.5368 81.5934 87.1548C82.0504 87.6235 82.6663 87.864 83.2713 87.864H91.805C93.1361 87.864 94.2188 88.9461 94.2188 90.2762C94.2188 91.5952 93.1515 92.6885 91.805 92.6885H79.2215C77.9271 92.6885 76.8778 93.7378 76.8778 95.0321C76.8778 96.3265 77.9271 97.3758 79.2215 97.3758H91.805C95.1905 97.3758 97.9446 95.0309 98.6969 91.9962L109.011 85.0958C109.024 85.0869 109.037 85.078 109.05 85.0689C110.22 84.2519 111.843 84.4721 112.741 85.6266C113.686 86.842 113.428 88.5963 112.172 89.4899Z" fill="#004346"/>
<path d="M50.7569 98.7844C52.0513 98.7844 53.1006 97.7351 53.1006 96.4407C53.1006 95.1463 52.0513 94.097 50.7569 94.097C49.4626 94.097 48.4133 95.1463 48.4133 96.4407C48.4133 97.7351 49.4626 98.7844 50.7569 98.7844Z" fill="#004346"/>
<path d="M66.7434 55.2316L68.1435 54.3553V71.7601C68.1435 73.0544 69.1928 74.1037 70.4872 74.1037H101.736C103.03 74.1037 104.08 73.0544 104.08 71.7601V54.3553L105.48 55.2316C106.577 55.9187 108.023 55.5855 108.71 54.4886C109.396 53.3914 109.064 51.9452 107.967 51.2585C107.742 51.1177 87.4767 38.4323 87.3182 38.337C86.5439 37.8717 85.5927 37.9034 84.868 38.3575L64.2563 51.2585C63.1592 51.9454 62.8265 53.3914 63.5132 54.4886C64.2005 55.5863 65.647 55.918 66.7434 55.2316ZM83.7679 69.4163V58.5845H88.4552V69.4163H83.7679ZM99.3923 69.4163H93.1425V56.2408C93.1425 54.9465 92.0932 53.8972 90.7989 53.8972H81.4242C80.1299 53.8972 79.0806 54.9465 79.0806 56.2408V69.4163H72.8308V51.4213L86.1116 43.1088L99.3923 51.4213V69.4163Z" fill="#004346"/>
</g>
<defs>
<clipPath id="clip0_6_706">
<rect width="80" height="80" fill="white" transform="translate(38 38)"/>
</clipPath>
</defs>
</svg>
