<svg width="155" height="155" viewBox="0 0 155 155" fill="none" xmlns="http://www.w3.org/2000/svg">
<circle cx="77.5" cy="77.5" r="77.5" fill="#004346"/>
<g clip-path="url(#clip0_6_694)">
<path d="M57.5698 85.8126C57.5698 97.1069 66.7831 106.296 78.1076 106.296C89.4322 106.296 98.6455 97.1069 98.6455 85.8126C98.6455 74.5182 89.4323 65.3296 78.1076 65.3296C66.7829 65.3296 57.5698 74.5182 57.5698 85.8126ZM78.1076 70.0171C86.8405 70.0171 93.9453 77.103 93.9453 85.8126C93.9453 94.5221 86.8405 101.608 78.1076 101.608C69.3747 101.608 62.2698 94.5221 62.2698 85.8126C62.2698 77.103 69.3747 70.0171 78.1076 70.0171Z" fill="white"/>
<path d="M116.874 61.2666L79.2244 38.3433C78.4492 37.8713 77.5027 37.9006 76.7755 38.3433L62.7269 46.8967V40.3438C62.7269 39.0494 61.6747 38 60.3769 38H50.9769C49.6791 38 48.6269 39.0494 48.6269 40.3438V55.4817L39.1255 61.2666C38.4264 61.6922 38 62.45 38 63.2669V72.6419C38 74.4761 40.0192 75.5894 41.5745 74.6423L43.228 73.6356V115.656C43.228 116.951 44.2802 118 45.578 118H110.421C111.719 118 112.771 116.951 112.771 115.656V73.6353L114.425 74.6423C115.99 75.5953 118 74.468 118 72.6419V63.2669C118 62.45 117.574 61.6922 116.874 61.2666ZM53.3269 42.6875H58.0269V49.7584L53.3269 52.62V42.6875ZM108.071 113.312H47.928V70.7741L78 52.4647L108.072 70.7738V113.312H108.071ZM113.3 68.4652C112.938 68.2448 79.3972 47.823 79.2083 47.7095C78.4325 47.2466 77.4964 47.2791 76.7755 47.7183L42.7 68.4652V64.582L78 43.0897L113.3 64.5822V68.4652Z" fill="white"/>
<path d="M72.0963 94.9875C73.3907 95.8281 74.4118 96.2406 75.5349 96.4297V96.7078C75.5349 98.0225 76.6317 99.1076 77.9996 99.0484C79.2501 98.9922 80.2476 97.9656 80.2476 96.7078V96.1781C82.8332 95.2734 84.4857 92.9625 84.8706 90.6812C85.4093 87.4875 83.672 84.6047 80.546 83.5047C79.6931 83.2047 78.7898 82.8719 77.9996 82.5125C77.3618 82.2219 76.7963 81.9172 76.3863 81.5969C76.096 81.3692 76.1935 79.9925 77.164 79.7015C78.2648 79.369 79.2735 79.6395 79.8313 80.0953C79.8313 80.0953 81.0503 81.2687 82.6103 80.3047C84.1701 79.339 83.6848 77.6937 83.5528 77.3859C83.0974 76.3292 81.4109 75.492 80.2476 75.1625V74.9172C80.2476 73.6594 79.2501 72.6328 77.9996 72.5765C76.6228 72.517 75.5349 73.6114 75.5349 74.9172V75.3047C73.5337 76.0125 72.054 77.7594 71.6407 79.9312C71.2417 82.039 71.9454 84.089 73.4771 85.2844C74.6913 86.2312 76.3267 86.9515 77.9996 87.5719C79.0271 87.957 80.5081 88.2301 80.2224 89.9031C80.067 90.8234 79.3082 91.8172 77.9996 91.8859C76.1965 91.9525 75.711 91.7378 74.6773 91.064C73.5871 90.3562 72.1278 90.6594 71.4146 91.7437C70.7031 92.8265 71.0077 94.2797 72.0963 94.9875Z" fill="white"/>
</g>
<defs>
<clipPath id="clip0_6_694">
<rect width="80" height="80" fill="white" transform="translate(38 38)"/>
</clipPath>
</defs>
</svg>
