<svg width="155" height="155" viewBox="0 0 155 155" fill="none" xmlns="http://www.w3.org/2000/svg">
<circle cx="77.5" cy="77.5" r="77.5" fill="#E9E9E9"/>
<path d="M73.8322 71.72C75.1266 71.72 76.1759 70.6706 76.1759 69.3763V53.6121L77.1977 54.2517C78.2952 54.9385 79.7413 54.6054 80.428 53.5085C81.1147 52.4112 80.782 50.9649 79.6849 50.2782L60.6362 38.355C59.8707 37.8757 58.8957 37.8877 58.1493 38.355L39.1005 50.2782C38.0034 50.9651 37.6706 52.4113 38.3573 53.5085C39.0442 54.6059 40.4906 54.9382 41.5877 54.2517L42.6094 53.6121V69.3761C42.6094 70.6705 43.6588 71.7199 44.9531 71.7199C46.2157 71.72 72.7423 71.72 73.8322 71.72ZM57.4046 67.0323V57.3773H61.3807V67.0323H57.4046ZM47.2969 50.6781L59.3927 43.1069L71.4886 50.6781V67.0323H66.0684V55.0335C66.0684 53.7392 65.019 52.6898 63.7246 52.6898H55.061C53.7666 52.6898 52.7172 53.7392 52.7172 55.0335V67.0323H47.2969V50.6781Z" fill="#004346"/>
<path d="M99.0073 80.0138C88.5347 80.0138 80.0147 88.5341 80.0147 99.007C80.0147 109.48 88.5347 118 99.0073 118C109.48 118 118 109.48 118 99.007C118 88.5341 109.48 80.0138 99.0073 80.0138ZM99.0073 113.313C91.1194 113.313 84.7022 106.895 84.7022 99.007C84.7022 91.1188 91.1194 84.7015 99.0073 84.7015C106.895 84.7015 113.313 91.1188 113.313 99.007C113.313 106.895 106.895 113.313 99.0073 113.313Z" fill="#004346"/>
<path d="M104.653 62.326C104.653 63.6204 105.702 64.6698 106.997 64.6698C108.291 64.6698 109.341 63.6204 109.341 62.326V54.5618C109.341 53.268 108.29 52.218 106.997 52.218H99.2329C97.9385 52.218 96.8891 53.2674 96.8891 54.5618C96.8891 55.8562 97.9385 56.9055 99.2329 56.9055H101.339L76.132 82.113L69.6431 75.6241C68.7279 74.7087 67.2438 74.7087 66.3285 75.6241L47.3461 94.6069C46.4308 95.5223 46.4308 97.0063 47.3461 97.9215C48.2614 98.837 49.7453 98.8368 50.6606 97.9215L67.9857 80.5958L74.4746 87.0847C75.3898 88 76.8739 88 77.7892 87.0847L104.653 60.2201V62.326Z" fill="#004346"/>
<path d="M101.399 96.7076C100.326 96.3276 98.5395 95.6787 97.6645 94.9951C97.4957 94.7826 97.6066 93.792 98.302 93.5826C99.182 93.3181 100.009 93.4929 100.527 93.8826L100.519 93.8748C100.525 93.8795 100.539 93.892 100.558 93.9076C100.554 93.9045 100.547 93.8998 100.539 93.8936C100.702 94.0498 101.632 94.8405 103.093 94.2529C104.708 93.6045 104.413 91.8201 104.361 91.5545C104.31 91.2889 104.052 90.7201 103.691 90.4232C103.202 89.9701 102.352 89.4264 101.254 89.0889V89.0076C101.254 87.7451 100.257 86.717 99.0082 86.667C97.8588 86.5574 96.566 87.5609 96.566 89.0076V89.2264C94.7379 89.9264 93.3941 91.5592 93.0144 93.5734C92.6363 95.5781 93.3066 97.533 94.7613 98.6736C96.1479 99.7628 98.1595 100.538 99.8363 101.128C100.639 101.411 100.98 101.95 100.849 102.73C100.749 103.327 100.249 104.322 99.0082 104.388C97.4109 104.454 96.9726 104.251 96.0801 103.667C94.9973 102.958 93.5441 103.263 92.8363 104.345C92.1269 105.428 92.4316 106.881 93.5144 107.589C94.6613 108.341 95.5785 108.725 96.566 108.914C96.566 110.552 97.9234 111.452 99.0082 111.349C100.257 111.299 101.254 110.269 101.254 109.008V108.647C103.422 107.827 105.068 105.91 105.472 103.508C105.98 100.481 104.344 97.7483 101.399 96.7076Z" fill="#004346"/>
</svg>
