<svg width="286" height="85" viewBox="0 0 286 85" fill="none" xmlns="http://www.w3.org/2000/svg">
<g clip-path="url(#clip0_9_842)">
<path d="M0 11.3333C0 5.07411 5.06113 0 11.3043 0H274.696C280.939 0 286 5.07411 286 11.3333V73.6667C286 79.9259 280.939 85 274.696 85H11.3043C5.06113 85 0 79.9259 0 73.6667V11.3333Z" fill="black"/>
<path fill-rule="evenodd" clip-rule="evenodd" d="M0 73.6667V11.3333C0 5.07411 5.06113 0 11.3043 0H274.696C280.939 0 286 5.07411 286 11.3333V73.6667C286 79.9259 280.939 85 274.696 85H11.3043C5.06113 85 0 79.9259 0 73.6667ZM1.69565 73.6667V11.3333C1.69565 6.01299 5.99761 1.7 11.3043 1.7H274.696C280.002 1.7 284.304 6.01299 284.304 11.3333V73.6667C284.304 78.987 280.002 83.3 274.696 83.3H11.3043C5.99761 83.3 1.69565 78.987 1.69565 73.6667Z" fill="white" fill-opacity="0.3"/>
<path d="M64.6295 44.2313C64.6004 39.2495 66.8518 35.4949 71.3982 32.7264C68.8554 29.074 65.0084 27.0652 59.9373 26.6781C55.1359 26.2983 49.8827 29.4831 47.9591 29.4831C45.9263 29.4831 41.2779 26.8096 37.6203 26.8096C30.072 26.9265 22.0501 32.8433 22.0501 44.8814C22.0501 48.4388 22.6986 52.113 23.9955 55.8969C25.7295 60.8786 31.9809 73.0848 38.5019 72.8876C41.9118 72.8072 44.3234 70.4624 48.7606 70.4624C53.0666 70.4624 55.2962 72.8876 59.0995 72.8876C65.6787 72.7926 71.3327 61.6968 72.9793 56.7004C64.1559 52.5294 64.6295 44.4869 64.6295 44.2313ZM56.9719 21.952C60.6659 17.5545 60.3308 13.5516 60.2215 12.1125C56.9574 12.3025 53.1832 14.3405 51.0338 16.846C48.6659 19.5341 47.2743 22.8577 47.573 26.605C51.0994 26.8753 54.3198 25.0565 56.9719 21.952Z" fill="white"/>
<path d="M104.426 61.5106H100.684L98.6341 55.0229H91.509L89.5563 61.5106H85.913L92.9722 39.4235H97.3323L104.426 61.5106ZM98.0162 52.301L96.1624 46.5336C95.9663 45.9444 95.5988 44.5569 95.0567 42.3727H94.9908C94.7749 43.3121 94.4273 44.6996 93.9494 46.5336L92.1286 52.301H98.0162Z" fill="white"/>
<path d="M122.58 53.3517C122.58 56.0603 121.853 58.2013 120.4 59.773C119.098 61.1721 117.482 61.8709 115.552 61.8709C113.469 61.8709 111.973 61.1174 111.062 59.6104H110.996V68.0001H107.483V50.8273C107.483 49.1245 107.438 47.3768 107.353 45.5843H110.442L110.638 48.1087H110.704C111.876 46.2067 113.654 45.2574 116.04 45.2574C117.905 45.2574 119.462 45.9993 120.708 47.4847C121.957 48.9718 122.58 50.9269 122.58 53.3517ZM119.001 53.4811C119.001 51.931 118.655 50.653 117.96 49.6473C117.2 48.5983 116.18 48.0739 114.901 48.0739C114.034 48.0739 113.247 48.366 112.543 48.9419C111.838 49.5228 111.377 50.2813 111.161 51.2206C111.052 51.6588 110.998 52.0173 110.998 52.2994V54.9549C110.998 56.1134 111.35 57.091 112.055 57.8893C112.761 58.6876 113.677 59.0859 114.804 59.0859C116.127 59.0859 117.157 58.5714 117.894 57.5457C118.632 56.5184 119.001 55.1641 119.001 53.4811Z" fill="white"/>
<path d="M140.767 53.3517C140.767 56.0603 140.041 58.2013 138.586 59.773C137.286 61.1721 135.669 61.8709 133.74 61.8709C131.657 61.8709 130.161 61.1174 129.251 59.6104H129.185V68.0001H125.672V50.8273C125.672 49.1245 125.627 47.3768 125.542 45.5843H128.631L128.827 48.1087H128.893C130.063 46.2067 131.841 45.2574 134.229 45.2574C136.093 45.2574 137.65 45.9993 138.899 47.4847C140.143 48.9718 140.767 50.9269 140.767 53.3517ZM137.188 53.4811C137.188 51.931 136.841 50.653 136.145 49.6473C135.386 48.5983 134.369 48.0739 133.089 48.0739C132.22 48.0739 131.434 48.366 130.729 48.9419C130.024 49.5228 129.564 50.2813 129.348 51.2206C129.241 51.6588 129.185 52.0173 129.185 52.2994V54.9549C129.185 56.1134 129.538 57.091 130.24 57.8893C130.945 58.6859 131.861 59.0859 132.991 59.0859C134.315 59.0859 135.345 58.5714 136.081 57.5457C136.819 56.5184 137.188 55.1641 137.188 53.4811Z" fill="white"/>
<path d="M161.102 55.3169C161.102 57.1957 160.454 58.7243 159.154 59.9043C157.725 61.1939 155.736 61.8378 153.181 61.8378C150.821 61.8378 148.929 61.3798 147.497 60.462L148.311 57.5127C149.854 58.4521 151.546 58.9234 153.39 58.9234C154.713 58.9234 155.743 58.6214 156.483 58.0205C157.219 57.4197 157.587 56.6131 157.587 55.6074C157.587 54.7111 157.284 53.956 156.676 53.3435C156.071 52.7311 155.061 52.1618 153.65 51.6357C149.811 50.1935 147.893 48.0807 147.893 45.3024C147.893 43.4867 148.565 41.9979 149.911 40.8395C151.253 39.6793 153.042 39.1001 155.28 39.1001C157.275 39.1001 158.933 39.4503 160.256 40.149L159.378 43.0336C158.142 42.3564 156.745 42.0178 155.181 42.0178C153.945 42.0178 152.98 42.3249 152.288 42.9356C151.703 43.4817 151.409 44.1472 151.409 44.9356C151.409 45.8086 151.744 46.5305 152.416 47.0981C153.001 47.6226 154.064 48.1902 155.606 48.8026C157.493 49.5678 158.879 50.4623 159.77 51.488C160.658 52.5104 161.102 53.79 161.102 55.3169Z" fill="white"/>
<path d="M172.716 48.2402H168.844V55.9727C168.844 57.9394 169.526 58.9219 170.894 58.9219C171.522 58.9219 172.043 58.8672 172.454 58.7576L172.552 61.4447C171.86 61.7052 170.948 61.8363 169.82 61.8363C168.432 61.8363 167.348 61.4098 166.565 60.5584C165.786 59.7053 165.394 58.2746 165.394 56.2648V48.2369H163.087V45.5813H165.394V42.6653L168.844 41.6164V45.5813H172.716V48.2402Z" fill="white"/>
<path d="M190.188 53.4164C190.188 55.8645 189.493 57.8743 188.106 59.4461C186.651 61.0643 184.719 61.8709 182.312 61.8709C179.992 61.8709 178.145 61.0958 176.767 59.5456C175.389 57.9955 174.701 56.0387 174.701 53.6803C174.701 51.2124 175.409 49.1909 176.831 47.6191C178.25 46.0457 180.165 45.2591 182.572 45.2591C184.892 45.2591 186.759 46.0341 188.168 47.5859C189.516 49.0913 190.188 51.0348 190.188 53.4164ZM186.543 53.5309C186.543 52.0621 186.232 50.8024 185.601 49.7518C184.864 48.4805 183.811 47.8465 182.447 47.8465C181.035 47.8465 179.962 48.4822 179.226 49.7518C178.594 50.8041 178.283 52.0837 178.283 53.5973C178.283 55.0662 178.594 56.3259 179.226 57.3748C179.985 58.6461 181.046 59.2801 182.416 59.2801C183.757 59.2801 184.81 58.6328 185.57 57.3416C186.217 56.2711 186.543 54.9981 186.543 53.5309Z" fill="white"/>
<path d="M201.607 48.6963C201.26 48.6315 200.889 48.5983 200.5 48.5983C199.264 48.5983 198.309 49.068 197.636 50.0091C197.051 50.8389 196.758 51.8878 196.758 53.1542V61.5107H193.246L193.279 50.5999C193.279 48.7643 193.235 47.093 193.148 45.586H196.208L196.336 48.6332H196.433C196.804 47.5859 197.389 46.7428 198.19 46.1105C198.973 45.5412 199.818 45.2574 200.729 45.2574C201.054 45.2574 201.347 45.2806 201.607 45.3221V48.6963Z" fill="white"/>
<path d="M217.318 52.7941C217.318 53.4281 217.277 53.9626 217.19 54.3991H206.651C206.692 55.9724 207.201 57.1757 208.18 58.0056C209.068 58.7474 210.216 59.1192 211.627 59.1192C213.187 59.1192 214.611 58.8686 215.891 58.3657L216.442 60.822C214.946 61.4793 213.179 61.8062 211.141 61.8062C208.689 61.8062 206.764 61.0793 205.364 59.6271C203.966 58.1748 203.266 56.2247 203.266 53.7783C203.266 51.3768 203.917 49.3768 205.22 47.7819C206.585 46.079 208.428 45.2276 210.749 45.2276C213.028 45.2276 214.753 46.079 215.924 47.7819C216.852 49.1345 217.318 50.8075 217.318 52.7941ZM213.968 51.8763C213.991 50.8274 213.762 49.9212 213.286 49.1561C212.678 48.1719 211.744 47.6806 210.487 47.6806C209.338 47.6806 208.404 48.1603 207.69 49.1229C207.105 49.888 206.758 50.8058 206.651 51.8747H213.968V51.8763Z" fill="white"/>
<path d="M97.301 24.5706C97.301 26.9581 96.5901 28.7552 95.1703 29.9622C93.8552 31.0758 91.9863 31.6336 89.5656 31.6336C88.3653 31.6336 87.3382 31.5808 86.4783 31.4754V18.4306C87.6 18.248 88.8083 18.1547 90.1133 18.1547C92.4193 18.1547 94.1573 18.6598 95.3294 19.6699C96.6424 20.8119 97.301 22.4448 97.301 24.5706ZM95.0756 24.6294C95.0756 23.0817 94.6688 21.8951 93.8552 21.0675C93.0416 20.242 91.8534 19.8282 90.2886 19.8282C89.624 19.8282 89.0581 19.8728 88.5888 19.9661V29.883C88.8486 29.9236 89.3239 29.9419 90.0147 29.9419C91.6298 29.9419 92.8764 29.4895 93.7545 28.5849C94.6325 27.6802 95.0756 26.3617 95.0756 24.6294Z" fill="white"/>
<path d="M109.101 26.6562C109.101 28.1268 108.684 29.3317 107.85 30.2769C106.976 31.2485 105.818 31.7333 104.372 31.7333C102.978 31.7333 101.869 31.2688 101.041 30.3357C100.215 29.4047 99.8024 28.2302 99.8024 26.8144C99.8024 25.3336 100.227 24.1186 101.081 23.1754C101.935 22.2322 103.083 21.7596 104.529 21.7596C105.923 21.7596 107.042 22.2241 107.89 23.1551C108.696 24.0598 109.101 25.2282 109.101 26.6562ZM106.911 26.7251C106.911 25.8428 106.722 25.0862 106.346 24.4553C105.902 23.6927 105.272 23.3113 104.452 23.3113C103.605 23.3113 102.96 23.6927 102.517 24.4553C102.138 25.0862 101.951 25.855 101.951 26.7637C101.951 27.646 102.141 28.4026 102.517 29.0335C102.974 29.7962 103.611 30.1775 104.432 30.1775C105.238 30.1775 105.87 29.7901 106.325 29.0132C106.716 28.3702 106.911 27.6075 106.911 26.7251Z" fill="white"/>
<path d="M124.922 21.9542L121.952 31.5162H120.018L118.788 27.364C118.476 26.3275 118.222 25.297 118.025 24.2747H117.986C117.803 25.3254 117.549 26.3538 117.223 27.364L115.916 31.5162H113.961L111.167 21.9542H113.336L114.41 26.4999C114.67 27.5749 114.883 28.5993 115.054 29.5689H115.092C115.25 28.7697 115.509 27.7514 115.876 26.5202L117.223 21.9562H118.943L120.234 26.4228C120.546 27.5121 120.8 28.5608 120.995 29.5709H121.054C121.197 28.5871 121.412 27.5384 121.698 26.4228L122.85 21.9562H124.922V21.9542Z" fill="white"/>
<path d="M135.863 31.5162H133.753V26.0395C133.753 24.3518 133.116 23.508 131.839 23.508C131.213 23.508 130.708 23.7393 130.315 24.2038C129.926 24.6683 129.729 25.2159 129.729 25.8427V31.5142H127.618V24.6865C127.618 23.8468 127.592 22.936 127.542 21.9502H129.396L129.495 23.4451H129.554C129.799 22.9806 130.166 22.5973 130.647 22.291C131.219 21.934 131.859 21.7534 132.56 21.7534C133.446 21.7534 134.183 22.0415 134.77 22.6196C135.499 23.3275 135.863 24.3843 135.863 25.788V31.5162Z" fill="white"/>
<path d="M141.683 31.5161H139.574V17.5667H141.683V31.5161Z" fill="white"/>
<path d="M154.109 26.6562C154.109 28.1268 153.692 29.3317 152.858 30.2769C151.984 31.2485 150.824 31.7333 149.38 31.7333C147.984 31.7333 146.875 31.2688 146.049 30.3357C145.223 29.4047 144.81 28.2302 144.81 26.8144C144.81 25.3336 145.235 24.1186 146.089 23.1754C146.943 22.2322 148.091 21.7596 149.535 21.7596C150.931 21.7596 152.048 22.2241 152.898 23.1551C153.704 24.0598 154.109 25.2282 154.109 26.6562ZM151.918 26.7251C151.918 25.8428 151.728 25.0862 151.352 24.4553C150.911 23.6927 150.278 23.3113 149.461 23.3113C148.611 23.3113 147.966 23.6927 147.525 24.4553C147.147 25.0862 146.959 25.855 146.959 26.7637C146.959 27.646 147.149 28.4026 147.525 29.0335C147.982 29.7962 148.619 30.1775 149.44 30.1775C150.246 30.1775 150.876 29.7901 151.332 29.0132C151.724 28.3702 151.918 27.6075 151.918 26.7251Z" fill="white"/>
<path d="M164.323 31.5163H162.428L162.271 30.4148H162.213C161.564 31.2931 160.64 31.7333 159.44 31.7333C158.543 31.7333 157.818 31.4433 157.273 30.8672C156.777 30.3438 156.53 29.6927 156.53 28.9199C156.53 27.7515 157.013 26.861 157.986 26.2444C158.956 25.6278 160.322 25.3255 162.08 25.3397V25.1612C162.08 23.9016 161.423 23.2728 160.108 23.2728C159.172 23.2728 158.346 23.5101 157.633 23.9807L157.204 22.5851C158.086 22.0354 159.176 21.7596 160.461 21.7596C162.942 21.7596 164.186 23.078 164.186 25.715V29.2363C164.186 30.1917 164.233 30.9524 164.323 31.5163ZM162.132 28.2302V26.7556C159.804 26.715 158.64 27.358 158.64 28.6826C158.64 29.1816 158.773 29.5548 159.045 29.8043C159.317 30.0538 159.663 30.1775 160.076 30.1775C160.539 30.1775 160.972 30.0294 161.367 29.7353C161.764 29.4392 162.007 29.0639 162.098 28.6035C162.12 28.5 162.132 28.3742 162.132 28.2302Z" fill="white"/>
<path d="M176.316 31.5161H174.443L174.344 29.9806H174.286C173.688 31.149 172.669 31.7331 171.237 31.7331C170.093 31.7331 169.14 31.2808 168.385 30.3761C167.63 29.4715 167.253 28.297 167.253 26.8548C167.253 25.3071 167.662 24.0535 168.484 23.0961C169.279 22.2036 170.254 21.7574 171.414 21.7574C172.689 21.7574 173.581 22.1894 174.088 23.0556H174.129V17.5667H176.241V28.94C176.241 29.8711 176.265 30.7291 176.316 31.5161ZM174.129 27.4836V25.8893C174.129 25.6134 174.109 25.3903 174.07 25.2199C173.951 24.7087 173.696 24.2787 173.307 23.9318C172.914 23.585 172.441 23.4105 171.895 23.4105C171.108 23.4105 170.492 23.7249 170.038 24.3558C169.589 24.9866 169.362 25.7919 169.362 26.7757C169.362 27.7209 169.577 28.4877 170.01 29.0779C170.467 29.7068 171.084 30.0212 171.855 30.0212C172.548 30.0212 173.102 29.7595 173.523 29.2341C173.929 28.7493 174.129 28.1652 174.129 27.4836Z" fill="white"/>
<path d="M194.367 26.6562C194.367 28.1268 193.95 29.3317 193.117 30.2769C192.243 31.2485 191.087 31.7333 189.639 31.7333C188.247 31.7333 187.137 31.2688 186.308 30.3357C185.482 29.4047 185.069 28.2302 185.069 26.8144C185.069 25.3336 185.494 24.1186 186.348 23.1754C187.202 22.2322 188.35 21.7596 189.798 21.7596C191.189 21.7596 192.311 22.2241 193.157 23.1551C193.963 24.0598 194.367 25.2282 194.367 26.6562ZM192.18 26.7251C192.18 25.8428 191.991 25.0862 191.614 24.4553C191.169 23.6927 190.541 23.3113 189.719 23.3113C188.873 23.3113 188.229 23.6927 187.784 24.4553C187.405 25.0862 187.218 25.855 187.218 26.7637C187.218 27.646 187.407 28.4026 187.784 29.0335C188.241 29.7962 188.877 30.1775 189.699 30.1775C190.505 30.1775 191.139 29.7901 191.594 29.0132C191.983 28.3702 192.18 27.6075 192.18 26.7251Z" fill="white"/>
<path d="M205.715 31.5162H203.606V26.0395C203.606 24.3518 202.97 23.508 201.691 23.508C201.065 23.508 200.559 23.7393 200.169 24.2038C199.778 24.6683 199.583 25.2159 199.583 25.8427V31.5142H197.47V24.6865C197.47 23.8468 197.446 22.936 197.396 21.9502H199.248L199.347 23.4451H199.405C199.653 22.9806 200.02 22.5973 200.499 22.291C201.073 21.934 201.711 21.7534 202.414 21.7534C203.298 21.7534 204.035 22.0415 204.621 22.6196C205.352 23.3275 205.715 24.3843 205.715 25.788V31.5162Z" fill="white"/>
<path d="M219.919 23.5466H217.594V28.1917C217.594 29.3722 218.007 29.9625 218.825 29.9625C219.204 29.9625 219.518 29.93 219.765 29.8631L219.82 31.4757C219.403 31.6339 218.855 31.713 218.181 31.713C217.347 31.713 216.698 31.4574 216.229 30.9463C215.758 30.4351 215.524 29.575 215.524 28.3681V23.5466H214.137V21.9543H215.524V20.2017L217.592 19.5729V21.9522H219.917V23.5466H219.919Z" fill="white"/>
<path d="M231.092 31.5161H228.98V26.0799C228.98 24.3659 228.343 23.5079 227.069 23.5079C226.09 23.5079 225.421 24.0049 225.055 24.9988C224.992 25.2077 224.956 25.4633 224.956 25.7635V31.5141H222.847V17.5667H224.956V23.3294H224.996C225.661 22.2807 226.613 21.7574 227.848 21.7574C228.722 21.7574 229.445 22.0454 230.019 22.6235C230.734 23.3436 231.092 24.4146 231.092 25.8304V31.5161Z" fill="white"/>
<path d="M242.619 26.2828C242.619 26.6641 242.591 26.9846 242.54 27.2463H236.211C236.239 28.1915 236.541 28.9116 237.127 29.4106C237.663 29.8569 238.353 30.08 239.199 30.08C240.136 30.08 240.99 29.9299 241.759 29.6277L242.089 31.1043C241.189 31.4979 240.13 31.6946 238.903 31.6946C237.433 31.6946 236.275 31.2585 235.437 30.3863C234.595 29.5141 234.179 28.3437 234.179 26.8751C234.179 25.4329 234.567 24.2321 235.351 23.2746C236.168 22.2523 237.274 21.7412 238.67 21.7412C240.035 21.7412 241.072 22.2523 241.773 23.2746C242.339 24.086 242.619 25.0901 242.619 26.2828ZM240.605 25.7331C240.621 25.1022 240.482 24.5586 240.196 24.1002C239.83 23.5099 239.272 23.2138 238.517 23.2138C237.828 23.2138 237.266 23.5018 236.837 24.0799C236.487 24.5404 236.279 25.0901 236.211 25.7331H240.605Z" fill="white"/>
</g>
<defs>
<clipPath id="clip0_9_842">
<rect width="286" height="85" fill="white"/>
</clipPath>
</defs>
</svg>
